<svg xmlns="http://www.w3.org/2000/svg" width="104" height="42" fill="none">
  <path d="M57.9734 6.45305L57.9733 6.45299L57.9683 6.45927C57.311 7.27398 56.4065 7.9916 55.4349 8.50465C54.4609 9.01895 53.445 9.31437 52.5691 9.31437C52.4854 9.31437 52.4007 9.30929 52.322 9.30169C52.3064 9.17868 52.2931 9.02635 52.2931 8.87463C52.2931 6.81167 53.3577 4.74578 54.514 3.43132L54.5164 3.42851C55.9044 1.81875 58.1575 0.590061 60.0938 0.397549C60.1081 0.537763 60.1154 0.689818 60.1154 0.844266C60.1154 2.89316 59.2317 4.96027 57.9734 6.45305ZM59.7595 10.5264C60.9016 10.5264 64.8399 10.6304 67.5558 14.2228C67.4178 14.317 67.2441 14.4401 67.046 14.5931C66.593 14.9431 66.0122 15.4499 65.4387 16.1258C64.2897 17.48 63.1688 19.516 63.1688 22.3187C63.1688 25.5587 64.5956 27.7606 66.0404 29.152C67.1093 30.1812 68.192 30.7718 68.727 31.0235C68.7047 31.0933 68.6781 31.174 68.6472 31.2649C68.5357 31.5925 68.3679 32.0493 68.1385 32.5933C67.6794 33.682 66.9759 35.1144 65.9861 36.5581C65.0841 37.8563 64.1877 39.1141 63.172 40.0507C62.1628 40.9812 61.066 41.5663 59.7638 41.5663C58.466 41.5663 57.6436 41.2077 56.7291 40.809C56.6978 40.7954 56.6664 40.7817 56.6348 40.7679C55.6656 40.3461 54.6012 39.9073 52.8758 39.9073C51.1924 39.9073 50.0472 40.3598 49.0207 40.7936C48.9722 40.8141 48.9241 40.8345 48.8762 40.8547C47.9134 41.2628 47.0688 41.6207 45.908 41.6207C44.7299 41.6207 43.7079 41.0852 42.7034 40.156C41.6923 39.2206 40.7343 37.9196 39.6831 36.445C37.2965 33.0506 35.363 27.7622 35.363 22.7556C35.363 14.7763 40.5248 10.6356 45.5215 10.6356C46.8319 10.6356 48.0463 11.0658 49.1869 11.5204C49.3152 11.5715 49.4432 11.6232 49.5705 11.6746C50.0003 11.8481 50.4227 12.0187 50.8223 12.1538C51.3415 12.3294 51.8586 12.4584 52.355 12.4584C52.8345 12.4584 53.3558 12.3202 53.89 12.136C54.2557 12.0099 54.6508 11.8533 55.0598 11.6913C55.2475 11.6169 55.4382 11.5414 55.6303 11.4671C56.8719 10.987 58.2537 10.5264 59.7595 10.5264Z" stroke="#D9D9DE" stroke-width="0.75"/>
</svg>
